<svg width="325" height="355" viewBox="0 0 325 355" fill="none" xmlns="http://www.w3.org/2000/svg">
<rect width="325" height="355" fill="#D9D9D9"/>
<path d="M157.75 122.5L112.75 125.75C107.75 120.75 107.083 115.917 110.75 111.25C147.083 108.917 188.75 108.083 235.75 108.75C237.583 110.083 238.167 112.333 237.5 115.5C236.833 118.5 235 121.417 232 124.25L181.75 121.25L165.5 192.75C164.333 202.917 162.333 219 159.5 241C156.833 263 154.917 279.333 153.75 290C141.917 291.167 134 288.667 130 282.5C141.167 239.5 149.833 199.917 156 163.75L157.75 122.5Z" fill="black"/>
</svg>
