<svg width="1200" height="700" viewBox="0 0 1200 700" fill="none" xmlns="http://www.w3.org/2000/svg">
<ellipse cx="600" cy="699.5" rx="600" ry="125.5" fill="#DADADA"/>
<path d="M492.059 185.841C486.519 170.036 489.751 148.695 492.059 140H503.022C500.714 148.248 499.637 168.962 503.022 185.841C506.408 202.72 506.228 240.313 505.715 257H492.059C494.367 239.866 497.598 201.646 492.059 185.841Z" fill="#DADADA"/>
<path d="M1003.06 410.841C997.519 395.036 1000.75 373.695 1003.06 365H1014.02C1011.71 373.248 1010.64 393.962 1014.02 410.841C1017.41 427.72 1017.23 465.313 1016.72 482H1003.06C1005.37 464.866 1008.6 426.646 1003.06 410.841Z" fill="#DADADA"/>
<path d="M1020.06 303.841C1014.52 288.036 1017.75 266.695 1020.06 258H1031.02C1028.71 266.248 1027.64 286.962 1031.02 303.841C1034.41 320.72 1034.23 358.313 1033.72 375H1020.06C1022.37 357.866 1025.6 319.646 1020.06 303.841Z" fill="#DADADA"/>
<path d="M491.059 410.841C485.519 395.036 488.751 373.695 491.059 365H502.022C499.714 373.248 498.637 393.962 502.022 410.841C505.408 427.72 505.228 465.313 504.715 482H491.059C493.367 464.866 496.598 426.646 491.059 410.841Z" fill="#DADADA"/>
<path d="M175.059 252.841C169.519 237.036 172.751 215.695 175.059 207H186.022C183.714 215.248 182.637 235.962 186.022 252.841C189.408 269.72 189.228 307.313 188.715 324H175.059C177.367 306.866 180.598 268.646 175.059 252.841Z" fill="#DADADA"/>
<path d="M41.2518 269.367C6.38492 169.947 26.7239 35.6973 41.2518 -19H110.259C95.7314 32.882 88.9517 163.19 110.259 269.367C131.567 375.544 130.437 612.03 127.208 717H41.2518C55.7797 609.214 76.1187 368.788 41.2518 269.367Z" fill="#2D2D2D"/>
<path d="M1172.75 429.633C1207.62 529.053 1187.28 663.303 1172.75 718H1103.74C1118.27 666.118 1125.05 535.81 1103.74 429.633C1082.43 323.456 1083.56 86.9705 1086.79 -18H1172.75C1158.22 89.7858 1137.88 330.212 1172.75 429.633Z" fill="#2D2D2D"/>
<path d="M938 376C943.776 328.4 940.407 278.255 938 259.132C941.187 258.421 948.849 257 954 257C948.693 289.715 951.789 349.965 954 376H938Z" fill="#DADADA"/>
<path d="M347 270C352.776 222.4 349.407 172.255 347 153.132C350.187 152.421 357.849 151 363 151C357.693 183.715 360.789 243.965 363 270H347Z" fill="#DADADA"/>
<path d="M636 415C645.385 338.2 639.911 257.293 636 226.44C641.179 225.293 653.629 223 662 223C653.376 275.784 658.407 372.993 662 415H636Z" fill="#A3A3A3"/>
<path d="M690 266C695.776 218.4 692.407 168.255 690 149.132C693.187 148.421 700.849 147 706 147C700.693 179.715 703.789 239.965 706 266H690Z" fill="#DADADA"/>
<path d="M827.381 327.616C821.258 291.25 824.83 234.72 827.381 211H840.139C845.321 240.921 842.298 301.467 840.139 328C838.307 328 833.191 327.923 827.381 327.616Z" fill="#DADADA"/>
<path d="M972.381 241.616C966.258 205.25 969.83 148.72 972.381 125H985.139C990.321 154.921 987.298 215.467 985.139 242C983.307 242 978.191 241.923 972.381 241.616Z" fill="#DADADA"/>
<path d="M559.432 562.944C542.35 462.86 552.314 307.28 559.432 242H595.019C609.473 324.348 601.042 490.978 595.019 564C589.909 564 575.638 563.789 559.432 562.944Z" fill="#616161"/>
<path d="M271 529C288.327 385 278.22 233.3 271 175.45C280.561 173.3 303.546 169 319 169C303.078 267.971 312.366 450.238 319 529H271Z" fill="#616161"/>
<path d="M223.061 271H210.543C221.655 299.918 214.144 353.049 209 376C211.001 375.885 216.614 375.656 223.061 375.656C230.195 338.613 226.034 290.451 223.061 271Z" fill="#DADADA"/>
<path d="M906.746 185H867.801C902.371 276.711 879.005 445.213 863 518C869.224 517.636 886.687 516.908 906.746 516.908C928.939 399.43 915.993 246.687 906.746 185Z" fill="#616161"/>
<path d="M170.315 365H196.742C173.284 427.518 189.14 542.383 200 592C195.777 591.752 183.927 591.256 170.315 591.256C155.256 511.173 164.04 407.051 170.315 365Z" fill="#A3A3A3"/>
<path d="M768.873 447.348C758.237 385.494 764.441 289.344 768.873 249H791.031C800.03 299.892 794.781 402.872 791.031 448C787.849 448 778.963 447.87 768.873 447.348Z" fill="#8E8E8E"/>
<path d="M355.142 349.092C363.94 324.237 358.808 290.674 355.142 277H337.729C341.395 289.97 343.106 322.548 337.729 349.092C332.352 375.636 332.637 434.757 333.452 461H355.142C351.476 434.054 346.344 373.947 355.142 349.092Z" fill="#A3A3A3"/>
<path d="M368 702C401.571 424 381.988 131.134 368 19.4511C386.524 15.3008 431.059 7 461 7C430.151 198.068 448.146 549.945 461 702H368Z" fill="#2D2D2D"/>
<path d="M746.061 270H733.543C744.655 298.918 737.144 352.049 732 375C734.001 374.885 739.614 374.656 746.061 374.656C753.195 337.613 749.034 289.451 746.061 270Z" fill="#DADADA"/>
<path d="M463.061 210H450.543C461.655 238.918 454.144 292.049 449 315C451.001 314.885 456.614 314.656 463.061 314.656C470.195 277.613 466.034 229.451 463.061 210Z" fill="#DADADA"/>
<rect x="491" y="282" width="223" height="70" fill="white"/>
<path d="M512.28 296.4L497.88 297.44C496.28 295.84 496.067 294.293 497.24 292.8C508.867 292.053 522.2 291.787 537.24 292C537.827 292.427 538.013 293.147 537.8 294.16C537.587 295.12 537 296.053 536.04 296.96L519.96 296L514.76 318.88C514.387 322.133 513.747 327.28 512.84 334.32C511.987 341.36 511.373 346.587 511 350C507.213 350.373 504.68 349.573 503.4 347.6C506.973 333.84 509.747 321.173 511.72 309.6L512.28 296.4ZM541.009 320.56L540.769 308.08C543.169 307.067 544.929 306.64 546.049 306.8C547.169 306.96 548.022 307.387 548.609 308.08L545.649 318.48C544.742 326.213 543.675 336.72 542.449 350C538.555 350.373 536.022 349.547 534.849 347.52C536.609 341.493 538.662 332.507 541.009 320.56ZM549.729 298.96C549.835 300.133 549.489 301.147 548.689 302C547.889 302.8 546.875 303.2 545.649 303.2C544.422 303.2 543.382 302.8 542.529 302C541.675 301.147 541.195 300.133 541.089 298.96C541.035 297.733 541.409 296.72 542.209 295.92C543.062 295.12 544.102 294.72 545.329 294.72C546.555 294.72 547.569 295.12 548.369 295.92C549.222 296.72 549.675 297.733 549.729 298.96ZM561.614 306.8L562.574 287.04C564.44 285.92 565.934 285.253 567.054 285.04C568.227 284.827 569.507 285.04 570.894 285.68L566.254 303.6C564.92 315.493 563.134 330.96 560.894 350C557 350.373 554.467 349.547 553.294 347.52C556.92 333.333 559.694 319.76 561.614 306.8ZM581.223 306.8L582.183 287.04C584.05 285.92 585.543 285.253 586.663 285.04C587.836 284.827 589.116 285.04 590.503 285.68L585.863 303.6C584.53 315.493 582.743 330.96 580.503 350C576.61 350.373 574.076 349.547 572.903 347.52C576.53 333.333 579.303 319.76 581.223 306.8ZM614.993 336.96L604.513 348.96C600.406 348.907 597.259 347.707 595.073 345.36C592.886 343.013 591.766 339.76 591.713 335.6C591.659 331.387 592.619 327.013 594.592 322.48C596.566 317.893 599.206 314.133 602.513 311.2C605.819 308.267 609.179 306.8 612.593 306.8C615.739 308.187 618.379 310.773 620.513 314.56L620.593 314.32C620.753 310.8 621.179 308.133 621.873 306.32C625.659 306.32 628.193 307.173 629.473 308.88L623.473 320.64C622.513 326.827 621.499 336.613 620.433 350C616.806 350.427 614.086 349.653 612.273 347.68L615.873 337.68L614.993 336.96ZM597.793 335.52C597.793 339.573 599.286 342.48 602.273 344.24C607.126 339.44 611.819 334.907 616.353 330.64L619.073 318.88C618.219 317.067 617.313 315.6 616.353 314.48C615.393 313.36 614.033 312.213 612.273 311.04C607.739 312.907 604.193 316.053 601.633 320.48C599.073 324.853 597.793 329.867 597.793 335.52ZM641.151 318.96L641.871 319.44C646.351 313.36 651.417 309.147 657.071 306.8C659.951 307.067 662.244 308.187 663.951 310.16C665.711 312.133 666.804 314.293 667.231 316.64L664.351 323.76C663.337 332.613 662.591 341.36 662.111 350C658.857 350.373 656.511 349.707 655.071 348C656.191 340.64 658.004 330.293 660.511 316.96C660.191 314.773 659.071 313.28 657.151 312.48C652.031 314.72 646.964 318.987 641.951 325.28C640.777 332.853 639.391 341.093 637.791 350C634.377 350.32 632.084 349.68 630.911 348.08C633.897 338.16 636.244 328.88 637.951 320.24L636.271 308.8C638.511 306.72 641.151 305.893 644.191 306.32C644.457 307.6 644.164 310.507 643.311 315.04L641.151 318.96ZM695.071 336.96L684.591 348.96C680.484 348.907 677.337 347.707 675.151 345.36C672.964 343.013 671.844 339.76 671.791 335.6C671.737 331.387 672.697 327.013 674.671 322.48C676.644 317.893 679.284 314.133 682.591 311.2C685.897 308.267 689.257 306.8 692.671 306.8C695.817 308.187 698.457 310.773 700.591 314.56L700.671 314.32C700.831 310.8 701.257 308.133 701.951 306.32C705.737 306.32 708.271 307.173 709.551 308.88L703.551 320.64C702.591 326.827 701.577 336.613 700.511 350C696.884 350.427 694.164 349.653 692.351 347.68L695.951 337.68L695.071 336.96ZM677.871 335.52C677.871 339.573 679.364 342.48 682.351 344.24C687.204 339.44 691.897 334.907 696.431 330.64L699.151 318.88C698.297 317.067 697.391 315.6 696.431 314.48C695.471 313.36 694.111 312.213 692.351 311.04C687.817 312.907 684.271 316.053 681.711 320.48C679.151 324.853 677.871 329.867 677.871 335.52Z" fill="black"/>
</svg>
